<svg xmlns="http://www.w3.org/2000/svg" viewBox="0 0 467.8 467.7"><path d="M289.8,386.1a160.5,160.5,0,0,1-40.3-96.5h-70a230.2,230.2,0,0,0,60.8,145.9Z" transform="translate(-176.4 -45.2)" style="fill:#8677a2;stroke:#8677a2;stroke-linecap:round;stroke-linejoin:round;stroke-width:6px"/><path d="M249.4,270.5a160.5,160.5,0,0,1,39.8-97.7l-49.5-49.5a230.2,230.2,0,0,0-60.2,147.2Z" transform="translate(-176.4 -45.2)" style="fill:#e1e0e2;stroke:#e1e0e2;stroke-linecap:round;stroke-linejoin:round;stroke-width:6px"/><path d="M302.6,159.2a160.5,160.5,0,0,1,98.2-41v-70a230.2,230.2,0,0,0-147.7,61.5Z" transform="translate(-176.4 -45.2)" style="fill:#e1e0e2;stroke:#e1e0e2;stroke-linecap:round;stroke-linejoin:round;stroke-width:6px"/><path d="M419.9,48.2v70a160.5,160.5,0,0,1,97.5,40.4l49.5-49.5A230.2,230.2,0,0,0,419.9,48.2Z" transform="translate(-176.4 -45.2)" style="fill:#8677a2;stroke:#8677a2;stroke-linecap:round;stroke-linejoin:round;stroke-width:6px"/><path d="M571.2,289.7a160.5,160.5,0,0,1-41,97.2l49.5,49.5a230.2,230.2,0,0,0,61.5-146.7Z" transform="translate(-176.4 -45.2)" style="fill:#8677a2;stroke:#8677a2;stroke-linecap:round;stroke-linejoin:round;stroke-width:6px"/><path d="M530.9,172.1a160.5,160.5,0,0,1,40.4,98.5h69.9a230.2,230.2,0,0,0-60.9-147.9Z" transform="translate(-176.4 -45.2)" style="fill:#8677a2;stroke:#8677a2;stroke-linecap:round;stroke-linejoin:round;stroke-width:6px"/><path d="M400.8,440a160.5,160.5,0,0,1-97.5-40.4l-49.5,49.5A230.2,230.2,0,0,0,400.8,510Z" transform="translate(-176.4 -45.2)" style="fill:#8677a2;stroke:#8677a2;stroke-linecap:round;stroke-linejoin:round;stroke-width:6px"/><path d="M516.6,400.3A160.5,160.5,0,0,1,419.9,440v70a230.2,230.2,0,0,0,146.2-60.2Z" transform="translate(-176.4 -45.2)" style="fill:#8677a2;stroke:#8677a2;stroke-linecap:round;stroke-linejoin:round;stroke-width:6px"/><path d="M314.4,286.3v14.2h-1.7a19.7,19.7,0,0,1-6.5-.9,12.2,12.2,0,0,1-4.3-2.5,10.6,10.6,0,0,1-2.6-3.6,15.9,15.9,0,0,1-1.2-4.3l-1.8,2.1-1.4,1.5-.9,1-.9.2-1.8.2h-7.1l-1.7-.3a5.7,5.7,0,0,1-3.5-2.6,16.5,16.5,0,0,1-2.3-5.3,24.6,24.6,0,0,1-.7-6.5,17.3,17.3,0,0,1,1.2-6.3,8.1,8.1,0,0,1,1.5-2.2l2.7-2.7,3.5-2.9,3.7-2.9,3.6-2.6,3-2.1a7.7,7.7,0,0,1-.1-1.2q0-.7-.1-1.5t-.1-1.9l1-.9,1.7-1.4,2-1.6,2-1.4,1.5-1,.6-.2q.2,1.4.3,3.6t.3,4.7l.3,5.3q.1,2.7.3,5.3l.2,4.8q.1,2.3.2,3.9a26.4,26.4,0,0,0,1.1,6.4,9.6,9.6,0,0,0,1.9,3.5,5.4,5.4,0,0,0,2.5,1.6,12.6,12.6,0,0,0,2.9.4Zm-33.6-8.7a3.5,3.5,0,0,0,1,2.3,6.2,6.2,0,0,0,2.3,1.4,15.1,15.1,0,0,0,3.2.8l3.5.3h3.5l3-.3q-.3-2.3-.5-4.2t-.3-3.7l-.2-3.3q-.1-1.6-.3-3.2l-5.5,2.6q-2.7,1.4-4.9,2.9a26.6,26.6,0,0,0-3.5,2.7Q280.7,276.9,280.8,277.6Z" transform="translate(-176.4 -45.2)"/><path d="M306.5,293.5a7,7,0,0,1,.6-2.8,7.4,7.4,0,0,1,1.5-2.3,7,7,0,0,1,2.2-1.5,6.8,6.8,0,0,1,2.8-.6,7,7,0,0,1,2.8.6,7.2,7.2,0,0,1,3.8,3.8,7,7,0,0,1,.6,2.8,6.8,6.8,0,0,1-.6,2.8,7,7,0,0,1-1.5,2.2,7.4,7.4,0,0,1-2.3,1.5,7,7,0,0,1-2.8.6,6.8,6.8,0,0,1-2.8-.6,7.1,7.1,0,0,1-3.7-3.7A6.8,6.8,0,0,1,306.5,293.5Zm25.1-24.7a2.4,2.4,0,0,1,1.6.6,3.7,3.7,0,0,1,1,1.3,6.3,6.3,0,0,1,.4,1.6,9.9,9.9,0,0,1,.1,1.3,18.2,18.2,0,0,0,.8,5.9,9.5,9.5,0,0,0,2.5,4,10.1,10.1,0,0,0,4.1,2.3,19.8,19.8,0,0,0,5.6.7h.7v14.2h-.8a24.6,24.6,0,0,1-5.5-.6,20.7,20.7,0,0,1-4.6-1.6,15.1,15.1,0,0,1-3.6-2.4,10.8,10.8,0,0,1-2.4-3.1,15,15,0,0,1-3.6,4.2,16.2,16.2,0,0,1-8.2,3.3l-3.6.2h-2.6V286.3h1.1a17.9,17.9,0,0,0,4.9-.7,12.6,12.6,0,0,0,4.4-2.2,11.2,11.2,0,0,0,3.1-3.9,13.3,13.3,0,0,0,1.2-5.9,8.7,8.7,0,0,1,.1-1.4,6.4,6.4,0,0,1,.5-1.6,3.7,3.7,0,0,1,1-1.3A2.5,2.5,0,0,1,331.6,268.7Zm-12.9-12.9,7.2-7.2,7.2,7.2-7.2,7.2Zm12.4,0,7.2-7.2,7.2,7.2-7.2,7.2Z" transform="translate(-176.4 -45.2)"/><path d="M340.2,293.5a7,7,0,0,1,.6-2.8,7.4,7.4,0,0,1,1.5-2.3,7,7,0,0,1,2.2-1.5,6.8,6.8,0,0,1,2.8-.6,7,7,0,0,1,2.8.6,7.2,7.2,0,0,1,3.8,3.8,7,7,0,0,1,.6,2.8,6.8,6.8,0,0,1-.6,2.8,7,7,0,0,1-1.5,2.2,7.4,7.4,0,0,1-2.3,1.5,7,7,0,0,1-2.8.6,6.8,6.8,0,0,1-2.8-.6,7.1,7.1,0,0,1-3.7-3.7A6.8,6.8,0,0,1,340.2,293.5Zm28-45.2a10.4,10.4,0,0,1,6.2,2,17.4,17.4,0,0,1,4.8,5.5,30.2,30.2,0,0,1,3.1,8.1,41.7,41.7,0,0,1,1.1,9.6,33.3,33.3,0,0,1-1.2,9.4,24,24,0,0,1-3.3,7.1,21.3,21.3,0,0,1-4.9,5,25.6,25.6,0,0,1-6,3.2,31.8,31.8,0,0,1-6.5,1.7,43.9,43.9,0,0,1-6.6.5h-7.7V286.3h7.6a70.4,70.4,0,0,0,8.1-.4,33.3,33.3,0,0,0,6.2-1.3,17.3,17.3,0,0,0,4.4-2,10.6,10.6,0,0,0,2.8-2.7l-.6.4-1.5.6-2.7.6-4,.3a20,20,0,0,1-8-1.3,10.5,10.5,0,0,1-4.6-3.6,11.7,11.7,0,0,1-1.9-5.3,30.6,30.6,0,0,1,0-6.4,21.3,21.3,0,0,1,1.5-6.1,20.6,20.6,0,0,1,3.2-5.4,16.2,16.2,0,0,1,4.6-3.9A11.9,11.9,0,0,1,368.2,248.3Zm-.6,22.2,4.4-.2,2.7-.5,1.4-.5.4-.2-.9-2.4a14.5,14.5,0,0,0-1.8-3.2,12.7,12.7,0,0,0-3-2.9,7.9,7.9,0,0,0-4.4-1.4,12.7,12.7,0,0,0-3.6.4,8.8,8.8,0,0,0-2.9,1.3,6.3,6.3,0,0,0-1.9,2.1,5.7,5.7,0,0,0-.7,2.6,2.9,2.9,0,0,0,1,2.2,8,8,0,0,0,2.5,1.5,15.1,15.1,0,0,0,3.3.9Zm-7.2-34.2,7.8-7.8,7.8,7.8-7.8,7.8Z" transform="translate(-176.4 -45.2)"/><path d="M416.7,272.2q.2,0,.8,1l1.6,2.6,2.2,3.4a32.2,32.2,0,0,0,2.7,3.4,15.4,15.4,0,0,0,3.1,2.6,6.1,6.1,0,0,0,3.3,1h1v14.2h-.8l-2.9-.2-2.2-.6-1.6-.7-1.2-.8a29.9,29.9,0,0,1-1.5,8,37.1,37.1,0,0,1-13.1,17.9,25.6,25.6,0,0,1-5.3,3,12.9,12.9,0,0,1-4.8,1.1,7.7,7.7,0,0,1-3-1,28.4,28.4,0,0,1-3.8-2.4,42.4,42.4,0,0,1-3.5-3,12.8,12.8,0,0,1-2.3-2.6q-.5-.8-.1-1.3a1.3,1.3,0,0,1,1-.4,31.8,31.8,0,0,0,8.6-1.1,34.9,34.9,0,0,0,7.3-2.9,32.9,32.9,0,0,0,5.9-4,32.5,32.5,0,0,0,4.3-4.4,18.3,18.3,0,0,0,2.5-4.1,6.1,6.1,0,0,0,.6-3.1,13.4,13.4,0,0,0-.9-2.7q-.8-1.8-1.9-3.9l-2.2-4.1-2-3.4,2.1-3.5,2.4-3.7a36.9,36.9,0,0,1,2.2-3Q416.2,272.2,416.7,272.2Z" transform="translate(-176.4 -45.2)"/><path d="M423.7,293.5a7,7,0,0,1,.6-2.8,7.4,7.4,0,0,1,1.5-2.3,7,7,0,0,1,2.2-1.5,6.8,6.8,0,0,1,2.8-.6,7,7,0,0,1,2.8.6,7.2,7.2,0,0,1,3.8,3.8,7,7,0,0,1,.6,2.8,6.8,6.8,0,0,1-.6,2.8,7,7,0,0,1-1.5,2.2,7.4,7.4,0,0,1-2.3,1.5,7,7,0,0,1-2.8.6,6.8,6.8,0,0,1-2.8-.6,7.1,7.1,0,0,1-3.7-3.7A6.8,6.8,0,0,1,423.7,293.5Zm62.7-32.9q.3,0,1.2,1.6a22,22,0,0,1,1.8,4.4,43.7,43.7,0,0,1,1.4,6.7,39,39,0,0,1,.2,8.6,38,38,0,0,1-1.4,7.2,23.6,23.6,0,0,1-2.7,6A13.5,13.5,0,0,1,483,299a9.4,9.4,0,0,1-5.3,1.5,18.6,18.6,0,0,1-4.2-.4,11.2,11.2,0,0,1-3.5-1.4,10,10,0,0,1-2.7-2.5,12.5,12.5,0,0,1-1.9-3.8,22.4,22.4,0,0,1-2.7,4.4,11.7,11.7,0,0,1-2.7,2.5,7.7,7.7,0,0,1-2.6,1.1l-2.5.3a9.9,9.9,0,0,1-6.6-2.3,9.2,9.2,0,0,1-1.9-2.2,15,15,0,0,1-1.2-2.2,12.4,12.4,0,0,1-.6-1.9,5.8,5.8,0,0,1-.2-1.1L444,292l-1.3,1.9-2,2.2a17.1,17.1,0,0,1-2.6,2.1,15.5,15.5,0,0,1-3.2,1.6,10.7,10.7,0,0,1-3.8.6h-.4V286.3h2a12.2,12.2,0,0,0,4.5-.8,9.1,9.1,0,0,0,3.2-2.2,14.1,14.1,0,0,0,2.3-3.5q1-2,2-4.6l.5-1.3a8.1,8.1,0,0,1,.7-1.4,4.5,4.5,0,0,1,1-1.1,1.7,1.7,0,0,1,1.3-.3,1.8,1.8,0,0,1,1.3.6,2.9,2.9,0,0,1,.6,1.2,5.2,5.2,0,0,1,.1,1.5v1.4q-.2,1.8-.4,3.7a10.4,10.4,0,0,0,.3,3.5,4.7,4.7,0,0,0,1.6,2.5,5.1,5.1,0,0,0,3.5.9,12.6,12.6,0,0,0,4.2-.6,6.6,6.6,0,0,0,2.8-1.9,12.3,12.3,0,0,0,2-3.3q.8-2,1.8-4.9l.5-1.4a8.6,8.6,0,0,1,.8-1.6,4.6,4.6,0,0,1,1.1-1.3,1.6,1.6,0,0,1,1.5-.3,2,2,0,0,1,1.2.8,2.5,2.5,0,0,1,.4,1.2,7.4,7.4,0,0,1-.1,1.5q-.1.8-.2,1.6a19.8,19.8,0,0,0,0,3.5,9.7,9.7,0,0,0,.9,3.3,6.3,6.3,0,0,0,2.1,2.5,6.5,6.5,0,0,0,3.7,1l2-.2a14.8,14.8,0,0,0,2.9-.6,8.9,8.9,0,0,0,2.6-1.4,3.2,3.2,0,0,0,1.3-2.4,5.3,5.3,0,0,0-.2-1.9,9.8,9.8,0,0,0-.7-2l-1.1-1.9-1.1-1.8-.8-1.1-.9-1.3-1-1.2-.9-1,1.7-3,1.1-1.7,1.4-2,1.3-1.6C486,260.7,486.3,260.5,486.4,260.5Zm-32.5-5.2,7.2-7.2,7.2,7.2-7.2,7.2Zm7.2-9.6,6.2-6.3,6.2,6.3-6.2,6.2Zm5.2,9.6,7.2-7.2,7.2,7.2-7.2,7.2Z" transform="translate(-176.4 -45.2)"/><path d="M487.7,293.5a7,7,0,0,1,.6-2.8,7.4,7.4,0,0,1,1.5-2.3,7,7,0,0,1,2.2-1.5,6.8,6.8,0,0,1,2.8-.6,7,7,0,0,1,2.8.6,7.2,7.2,0,0,1,3.8,3.8,7,7,0,0,1,.6,2.8,6.8,6.8,0,0,1-.6,2.8,7,7,0,0,1-1.5,2.2,7.4,7.4,0,0,1-2.3,1.5,7,7,0,0,1-2.8.6,6.8,6.8,0,0,1-2.8-.6,7.1,7.1,0,0,1-3.7-3.7A6.8,6.8,0,0,1,487.7,293.5Zm24.6-35.5q.3.1,1.2,1.6a34.2,34.2,0,0,1,1.9,3.9,55.6,55.6,0,0,1,2,5.5,45,45,0,0,1,1.5,6.4,32.8,32.8,0,0,1,.4,6.6,16.7,16.7,0,0,1-1.4,6.1,18.9,18.9,0,0,1-2.6,4.1,21.2,21.2,0,0,1-4.5,4.1,25.6,25.6,0,0,1-6.3,3.1,24.7,24.7,0,0,1-8.1,1.3h-1.6V286.3h3l3-.2,3.5-.3,3.4-.5,2.6-.7q1-.4,1-.9a5.2,5.2,0,0,0-.6-1.9l-1.4-2.8-1.9-3.2-2-3.2-1.8-2.7-1.2-1.7,4.3-5.3,1.7-1.9,1.6-1.6,1.3-1.1A1.5,1.5,0,0,1,512.2,257.9ZM497.1,317l7.2-7.2,7.2,7.2-7.2,7.2Zm12.4,0,7.2-7.2,7.2,7.2-7.2,7.2Z" transform="translate(-176.4 -45.2)"/><path d="M517.6,293.5a7,7,0,0,1,.6-2.8,7.4,7.4,0,0,1,1.5-2.3,7,7,0,0,1,2.2-1.5,6.8,6.8,0,0,1,2.8-.6,7,7,0,0,1,2.8.6,7.2,7.2,0,0,1,3.8,3.8,7,7,0,0,1,.6,2.8,6.8,6.8,0,0,1-.6,2.8,7,7,0,0,1-1.5,2.2,7.4,7.4,0,0,1-2.3,1.5,7,7,0,0,1-2.8.6,6.8,6.8,0,0,1-2.8-.6,7.1,7.1,0,0,1-3.7-3.7A6.8,6.8,0,0,1,517.6,293.5Zm24.6-35.5q.3.1,1.2,1.6a34.2,34.2,0,0,1,1.9,3.9,55.6,55.6,0,0,1,2,5.5,45,45,0,0,1,1.5,6.4,32.8,32.8,0,0,1,.4,6.6,16.7,16.7,0,0,1-1.4,6.1,18.9,18.9,0,0,1-2.6,4.1,21.2,21.2,0,0,1-4.5,4.1,25.6,25.6,0,0,1-6.3,3.1,24.7,24.7,0,0,1-8.1,1.3h-1.6V286.3h3l3-.2,3.5-.3,3.4-.5,2.6-.7q1-.4,1-.9a5.2,5.2,0,0,0-.6-1.9l-1.4-2.8-1.9-3.2-2-3.2-1.8-2.7-1.2-1.7,4.3-5.3,1.7-1.9,1.6-1.6,1.3-1.1A1.5,1.5,0,0,1,542.2,257.9Zm-8.9,64.6-7.1-7.1,7.1-7.3,7.2,7.3Zm6.3,9.1-6.1-6.1,6.1-6.3,6.2,6.3Zm6.1-9.1-7.1-7.1,7.1-7.3,7.3,7.3Z" transform="translate(-176.4 -45.2)"/></svg>
