<svg xmlns="http://www.w3.org/2000/svg" viewBox="0 0 467.8 467.7"><path d="M289.8,386.1a160.5,160.5,0,0,1-40.3-96.5h-70a230.2,230.2,0,0,0,60.8,145.9Z" transform="translate(-176.4 -45.2)" style="fill:#e1e0e2;stroke:#e1e0e2;stroke-linecap:round;stroke-linejoin:round;stroke-width:6px"/><path d="M249.4,270.5a160.5,160.5,0,0,1,39.8-97.7l-49.5-49.5a230.2,230.2,0,0,0-60.2,147.2Z" transform="translate(-176.4 -45.2)" style="fill:#e1e0e2;stroke:#e1e0e2;stroke-linecap:round;stroke-linejoin:round;stroke-width:6px"/><path d="M302.6,159.2a160.5,160.5,0,0,1,98.2-41v-70a230.2,230.2,0,0,0-147.7,61.5Z" transform="translate(-176.4 -45.2)" style="fill:#e1e0e2;stroke:#e1e0e2;stroke-linecap:round;stroke-linejoin:round;stroke-width:6px"/><path d="M419.9,48.2v70a160.5,160.5,0,0,1,97.5,40.4l49.5-49.5A230.2,230.2,0,0,0,419.9,48.2Z" transform="translate(-176.4 -45.2)" style="fill:#8677a2;stroke:#8677a2;stroke-linecap:round;stroke-linejoin:round;stroke-width:6px"/><path d="M571.2,289.7a160.5,160.5,0,0,1-41,97.2l49.5,49.5a230.2,230.2,0,0,0,61.5-146.7Z" transform="translate(-176.4 -45.2)" style="fill:#e1e0e2;stroke:#e1e0e2;stroke-linecap:round;stroke-linejoin:round;stroke-width:6px"/><path d="M530.9,172.1a160.5,160.5,0,0,1,40.4,98.5h69.9a230.2,230.2,0,0,0-60.9-147.9Z" transform="translate(-176.4 -45.2)" style="fill:#8677a2;stroke:#8677a2;stroke-linecap:round;stroke-linejoin:round;stroke-width:6px"/><path d="M400.8,440a160.5,160.5,0,0,1-97.5-40.4l-49.5,49.5A230.2,230.2,0,0,0,400.8,510Z" transform="translate(-176.4 -45.2)" style="fill:#e1e0e2;stroke:#e1e0e2;stroke-linecap:round;stroke-linejoin:round;stroke-width:6px"/><path d="M516.6,400.3A160.5,160.5,0,0,1,419.9,440v70a230.2,230.2,0,0,0,146.2-60.2Z" transform="translate(-176.4 -45.2)" style="fill:#e1e0e2;stroke:#e1e0e2;stroke-linecap:round;stroke-linejoin:round;stroke-width:6px"/><path d="M380.2,286.3v14.2h-5.5a23.8,23.8,0,0,1-3.9-.3l-3.8-.8-3.5-1.2-2.8-1.3a9.3,9.3,0,0,1-2.4,1l-4,1-5.2.9-5.9.7-6.2.5-5.9.2q-4.5,0-9-.3a37.2,37.2,0,0,1-8.3-1.5,20.8,20.8,0,0,1-6.8-3.5,14.6,14.6,0,0,1-4.5-6.4,26.2,26.2,0,0,1-1.4-10.1,63,63,0,0,1,2.5-14.6,3.1,3.1,0,0,1,1-1.5,2,2,0,0,1,1.5-.5l.7.3.6.6a2.1,2.1,0,0,1,.4.9,3,3,0,0,1,0,1.1,29.9,29.9,0,0,0-.3,8.5,15,15,0,0,0,1.9,5.9,11.5,11.5,0,0,0,3.6,3.8,17.6,17.6,0,0,0,4.9,2.2,29.9,29.9,0,0,0,5.8,1l6.3.2h7.5l6.2-.4,5.8-.5-1.3-1.5a12.2,12.2,0,0,1-1.2-2.2,14.7,14.7,0,0,1-.9-2.9,17.8,17.8,0,0,1-.3-3.7,19.7,19.7,0,0,1,.5-3.9,32.1,32.1,0,0,1,1.3-4.6,34,34,0,0,1,2.2-4.7,22.6,22.6,0,0,1,2.9-4.2,14.6,14.6,0,0,1,3.6-3,8.6,8.6,0,0,1,4.3-1.1,8.4,8.4,0,0,1,4,1,11.8,11.8,0,0,1,3.2,2.6,17.8,17.8,0,0,1,2.5,3.7,27.9,27.9,0,0,1,1.8,4.3,30.6,30.6,0,0,1,1,4.4,25.3,25.3,0,0,1,.3,3.9,23.6,23.6,0,0,1-.3,3.9,20.7,20.7,0,0,1-.8,3.3,15.8,15.8,0,0,1-1.2,2.7,13.8,13.8,0,0,1-1.4,2.1l1.8.2h8.2Zm-19.8-3.7a8.9,8.9,0,0,0,3.4-1.5,17.3,17.3,0,0,0,2.7-2.4,14.4,14.4,0,0,0,1.8-2.4,4,4,0,0,0,.7-1.6,6.4,6.4,0,0,0-.6-2,13.4,13.4,0,0,0-1.8-3,13.1,13.1,0,0,0-2.9-2.7,6.6,6.6,0,0,0-3.9-1.2,7.1,7.1,0,0,0-3.8,1.1,14.4,14.4,0,0,0-3,2.4,12.9,12.9,0,0,0-1.9,2.6,2.5,2.5,0,0,0-.1,3.3,12.6,12.6,0,0,0,1.8,2.6,16.3,16.3,0,0,0,3.1,2.7A12.7,12.7,0,0,0,360.5,282.6ZM353,240.8l7.8-7.8,7.8,7.8-7.8,7.8Z" transform="translate(-176.4 -45.2)"/><path d="M372.6,293.5a7,7,0,0,1,.6-2.8,7.4,7.4,0,0,1,1.5-2.3,7,7,0,0,1,2.2-1.5,6.8,6.8,0,0,1,2.8-.6,7,7,0,0,1,2.8.6,7.2,7.2,0,0,1,3.8,3.8,7,7,0,0,1,.6,2.8,6.8,6.8,0,0,1-.6,2.8,7,7,0,0,1-1.5,2.2,7.4,7.4,0,0,1-2.3,1.5,7,7,0,0,1-2.8.6,6.8,6.8,0,0,1-2.8-.6,7.1,7.1,0,0,1-3.7-3.7A6.8,6.8,0,0,1,372.6,293.5Zm25.1-24.7a2.4,2.4,0,0,1,1.6.6,3.7,3.7,0,0,1,1,1.3,6.3,6.3,0,0,1,.4,1.6,9.9,9.9,0,0,1,.1,1.3,18.2,18.2,0,0,0,.8,5.9,9.5,9.5,0,0,0,2.5,4,10.1,10.1,0,0,0,4.1,2.3,19.8,19.8,0,0,0,5.6.7h.7v14.2h-.8a24.6,24.6,0,0,1-5.5-.6,20.7,20.7,0,0,1-4.6-1.6,15.1,15.1,0,0,1-3.6-2.4,10.8,10.8,0,0,1-2.4-3.1A15,15,0,0,1,394,297a16.2,16.2,0,0,1-8.2,3.3l-3.6.2h-2.6V286.3h1.1a17.9,17.9,0,0,0,4.9-.7,12.6,12.6,0,0,0,4.4-2.2,11.2,11.2,0,0,0,3.1-3.9,13.3,13.3,0,0,0,1.2-5.9,8.7,8.7,0,0,1,.1-1.4,6.4,6.4,0,0,1,.5-1.6,3.7,3.7,0,0,1,1-1.3A2.5,2.5,0,0,1,397.7,268.7Zm-14.2,46.9,7.2-7.2,7.2,7.2-7.2,7.2Zm12.4,0,7.2-7.2,7.2,7.2-7.2,7.2Z" transform="translate(-176.4 -45.2)"/><path d="M406.7,293.5a7,7,0,0,1,.6-2.8,7.4,7.4,0,0,1,1.5-2.3,7,7,0,0,1,2.2-1.5,6.8,6.8,0,0,1,2.8-.6,7,7,0,0,1,2.8.6,7.2,7.2,0,0,1,3.8,3.8,7,7,0,0,1,.6,2.8,6.8,6.8,0,0,1-.6,2.8,7,7,0,0,1-1.5,2.2,7.4,7.4,0,0,1-2.3,1.5,7,7,0,0,1-2.8.6,6.8,6.8,0,0,1-2.8-.6,7.1,7.1,0,0,1-3.7-3.7A6.8,6.8,0,0,1,406.7,293.5ZM439.5,256h3.4l3.9.4,4,.8a20.3,20.3,0,0,1,3.7,1.3,11.4,11.4,0,0,1,2.9,1.9,5.3,5.3,0,0,1,1.6,2.6,16.9,16.9,0,0,1,.4,2.8,29.6,29.6,0,0,1,0,3.1q-.1,1.5-.2,2.8a6,6,0,0,1-.4,1.7,28.7,28.7,0,0,1-3.3,5.6q-2.2,2.9-5,6.1l2.7.5,3.1.4h5.9v14.2h-1.7a29.5,29.5,0,0,1-5.7-.5,37.1,37.1,0,0,1-5.2-1.4,39.7,39.7,0,0,1-4.8-2l-4.2-2.3-3.9,2.3a28.5,28.5,0,0,1-4.4,2,32.6,32.6,0,0,1-5.5,1.4,42.1,42.1,0,0,1-7.1.5h-5.8V286.3h12.9l2.4-.3q-3.7-3.2-6.5-5.9l-2.3-2.4-2-2.3a13.1,13.1,0,0,1-1.3-1.9,2.3,2.3,0,0,1-.4-1.4q.2-1.3.6-2.9l.8-3.2.6-2.6.3-1.1a2.6,2.6,0,0,1,1.1-1l2.1-1.1,2.4-1,1.9-.8,2.2-.7,2.8-.6,3.6-.5Zm1.6,25.7a17.9,17.9,0,0,0,4.2-2.9,32.8,32.8,0,0,0,3.4-3.7,26.6,26.6,0,0,0,2.4-3.5,14.7,14.7,0,0,0,1.1-2.4q.1-.4-1-.8l-3-.8-4.4-.6-5.2-.2a46.5,46.5,0,0,0-6.6.5,18.5,18.5,0,0,0-5.5,1.6,32.6,32.6,0,0,0,4.5,5.1,59.8,59.8,0,0,0,4.8,4.1A58.3,58.3,0,0,0,441.1,281.8Z" transform="translate(-176.4 -45.2)"/><path d="M454.3,293.5a7,7,0,0,1,.6-2.8,7.4,7.4,0,0,1,1.5-2.3,7,7,0,0,1,2.2-1.5,6.8,6.8,0,0,1,2.8-.6,7,7,0,0,1,2.8.6,7.2,7.2,0,0,1,3.8,3.8,7,7,0,0,1,.6,2.8,6.8,6.8,0,0,1-.6,2.8,7,7,0,0,1-1.5,2.2,7.4,7.4,0,0,1-2.3,1.5,7,7,0,0,1-2.8.6,6.8,6.8,0,0,1-2.8-.6,7.1,7.1,0,0,1-3.7-3.7A6.8,6.8,0,0,1,454.3,293.5Zm61-33.7a15.3,15.3,0,0,1,6.8,1.4,9.9,9.9,0,0,1,3.9,3.4,11,11,0,0,1,1.7,4.5,21,21,0,0,1,.1,4.8,28.9,28.9,0,0,1-.7,4.2q-.5,1.9-.7,2.8a36.1,36.1,0,0,1-1.5,3.8,28.3,28.3,0,0,1-2.5,4.4,30.7,30.7,0,0,1-3.7,4.4,24.9,24.9,0,0,1-5.1,3.9,28.2,28.2,0,0,1-6.7,2.8,32,32,0,0,1-8.5,1,52.3,52.3,0,0,1-7.4-.5,30.5,30.5,0,0,1-5.5-1.3,17.2,17.2,0,0,1-3.8-1.8,14.1,14.1,0,0,1-2.6-2.1,10,10,0,0,1-1.6-2.2l-1-2a16,16,0,0,1-2.9,4.8,13.8,13.8,0,0,1-4.3,3.2,14.1,14.1,0,0,1-3.1,1,14.6,14.6,0,0,1-3.8.3h-1V286.3h1.1a18.8,18.8,0,0,0,5.8-.7,9.1,9.1,0,0,0,3.6-2.2,13.8,13.8,0,0,0,2.6-3.6l2.5-5.1.9-1.6a6.1,6.1,0,0,1,1.1-1.4,3.4,3.4,0,0,1,1.3-.8,2.2,2.2,0,0,1,1.4.1,1.7,1.7,0,0,1,1.2,1.6,10.6,10.6,0,0,1-.5,3q-.4,1.3-.7,2.6a6.3,6.3,0,0,0-.1,2.3,4.1,4.1,0,0,0,.9,1.9,5.5,5.5,0,0,0,2.2,1.5q1.3-1.9,3.4-4.5t4.5-5.2q2.5-2.7,5.3-5.2a56.4,56.4,0,0,1,5.8-4.6,32.3,32.3,0,0,1,5.9-3.3A15,15,0,0,1,515.2,259.8Zm6.4,20.9a7.8,7.8,0,0,0,0-2.6,5.5,5.5,0,0,0-1.1-2.6,6.6,6.6,0,0,0-2.6-1.9,10.4,10.4,0,0,0-4.3-.8,24,24,0,0,0-7.6,1.4,31.9,31.9,0,0,0-6.6,3.2,34.4,34.4,0,0,0-5.4,4.2,40.2,40.2,0,0,0-4,4.4l4.1.5,5.5.4q3,.1,6.1-.1a37.6,37.6,0,0,0,6.1-.9,23.4,23.4,0,0,0,5.5-1.9A12.6,12.6,0,0,0,521.6,280.6ZM504.3,246l7.8-7.8,7.8,7.8-7.8,7.8Z" transform="translate(-176.4 -45.2)"/></svg>
