<svg xmlns="http://www.w3.org/2000/svg" viewBox="0 0 467.8 467.7"><path d="M289.8,386.1a160.5,160.5,0,0,1-40.3-96.5h-70a230.2,230.2,0,0,0,60.8,145.9Z" transform="translate(-176.4 -45.2)" style="fill:#8677a2;stroke:#8677a2;stroke-linecap:round;stroke-linejoin:round;stroke-width:6px"/><path d="M249.4,270.5a160.5,160.5,0,0,1,39.8-97.7l-49.5-49.5a230.2,230.2,0,0,0-60.2,147.2Z" transform="translate(-176.4 -45.2)" style="fill:#8677a2;stroke:#8677a2;stroke-linecap:round;stroke-linejoin:round;stroke-width:6px"/><path d="M302.6,159.2a160.5,160.5,0,0,1,98.2-41v-70a230.2,230.2,0,0,0-147.7,61.5Z" transform="translate(-176.4 -45.2)" style="fill:#8677a2;stroke:#8677a2;stroke-linecap:round;stroke-linejoin:round;stroke-width:6px"/><path d="M419.9,48.2v70a160.5,160.5,0,0,1,97.5,40.4l49.5-49.5A230.2,230.2,0,0,0,419.9,48.2Z" transform="translate(-176.4 -45.2)" style="fill:#8677a2;stroke:#8677a2;stroke-linecap:round;stroke-linejoin:round;stroke-width:6px"/><path d="M571.2,289.7a160.5,160.5,0,0,1-41,97.2l49.5,49.5a230.2,230.2,0,0,0,61.5-146.7Z" transform="translate(-176.4 -45.2)" style="fill:#8677a2;stroke:#8677a2;stroke-linecap:round;stroke-linejoin:round;stroke-width:6px"/><path d="M530.9,172.1a160.5,160.5,0,0,1,40.4,98.5h69.9a230.2,230.2,0,0,0-60.9-147.9Z" transform="translate(-176.4 -45.2)" style="fill:#8677a2;stroke:#8677a2;stroke-linecap:round;stroke-linejoin:round;stroke-width:6px"/><path d="M400.8,440a160.5,160.5,0,0,1-97.5-40.4l-49.5,49.5A230.2,230.2,0,0,0,400.8,510Z" transform="translate(-176.4 -45.2)" style="fill:#8677a2;stroke:#8677a2;stroke-linecap:round;stroke-linejoin:round;stroke-width:6px"/><path d="M516.6,400.3A160.5,160.5,0,0,1,419.9,440v70a230.2,230.2,0,0,0,146.2-60.2Z" transform="translate(-176.4 -45.2)" style="fill:#8677a2;stroke:#8677a2;stroke-linecap:round;stroke-linejoin:round;stroke-width:6px"/><path d="M337.1,258.7a18.5,18.5,0,0,1,6.9,1.4q.2.1,0,1.1t-.5,2.3-.9,3q-.6,1.6-1.2,2.9a18,18,0,0,1-1.2,2.2q-.6.9-1,.9a11.9,11.9,0,0,0-4.3-.7,20.7,20.7,0,0,0-6.9,1.3,29.1,29.1,0,0,0-6.6,3.3,21.1,21.1,0,0,0-5,4.6,9.3,9.3,0,0,0-2.1,5.2q0,.7,1,1.2a16,16,0,0,0,2.9,1.1l4.4,1.1,5.4,1.2a23.7,23.7,0,0,1,6.9,2.4,14.2,14.2,0,0,1,4,3.2,9.2,9.2,0,0,1,1.8,3.5,14,14,0,0,1,.4,3.3,22.8,22.8,0,0,1-1.9,9.6,18.7,18.7,0,0,1-5.8,7.2,27.4,27.4,0,0,1-9.6,4.5,51.7,51.7,0,0,1-13.4,1.6,68.5,68.5,0,0,1-10.8-.8,33.8,33.8,0,0,1-9.1-2.7,21.2,21.2,0,0,1-6.9-5.1,18.8,18.8,0,0,1-4.1-7.9,32.6,32.6,0,0,1-.6-11.2,69.7,69.7,0,0,1,3.4-14.9l.8-2.1,1-2.6q.6-1.3,1.2-2.6a12.1,12.1,0,0,1,1.5-2.2,5.5,5.5,0,0,1,1.6-1.4,2.3,2.3,0,0,1,1.8-.1,1.8,1.8,0,0,1,1.3,1.4,5.8,5.8,0,0,1-.2,2.4,34.8,34.8,0,0,1-1.2,3.4q-.8,2-1.5,4.4t-1.4,6.2a29.2,29.2,0,0,0-.5,6.3,19.2,19.2,0,0,0,1.1,5.9,12.1,12.1,0,0,0,3.4,5,17.2,17.2,0,0,0,6.4,3.4,34.7,34.7,0,0,0,10.1,1.3q6.6-.1,11.4-.7a55.3,55.3,0,0,0,7.9-1.4,14.2,14.2,0,0,0,4.6-1.9,3,3,0,0,0,1.5-2.3q0-.4-1.1-.6l-2.9-.4-4-.6-4.6-.9a30.1,30.1,0,0,1-4.6-1.6,15.1,15.1,0,0,1-3.9-2.5,10.9,10.9,0,0,1-2.7-3.6,11.1,11.1,0,0,1-.9-5.1,28.8,28.8,0,0,1,1.3-7.4,38.5,38.5,0,0,1,3.1-7.3,40.3,40.3,0,0,1,4.6-6.6,33.9,33.9,0,0,1,5.8-5.4,28.6,28.6,0,0,1,6.6-3.6A19.5,19.5,0,0,1,337.1,258.7Z" transform="translate(-176.4 -45.2)"/><path d="M350.4,237.9l4.3-3.6,1.8-1.4,1.7-1.4,1.6-1.2,1.2-.9q.8-.6,1,0,.5,4.2.8,9.7t.5,11.4q.2,6,.2,12t-.2,11.4q-.2,5.4-.5,9.7a67.3,67.3,0,0,1-.8,6.9l-1,2.1-1.2,2.2-1.6,2.7-1.6,2.4-1.4,1.7a2.8,2.8,0,0,1-1,.8c-.3.1-.4-.1-.4-.6q-.1-3.4-.2-8.1t-.3-10.1q-.2-5.4-.4-11.4t-.6-12q-.3-6-.7-11.8T350.4,237.9Z" transform="translate(-176.4 -45.2)"/><path d="M412.3,286.3v14.2h-1.7a19.7,19.7,0,0,1-6.5-.9,12.2,12.2,0,0,1-4.3-2.5,10.6,10.6,0,0,1-2.6-3.6,15.9,15.9,0,0,1-1.2-4.3l-1.8,2.1-1.4,1.5-.9,1-.9.2-1.8.2h-7.1l-1.7-.3a5.7,5.7,0,0,1-3.5-2.6,16.5,16.5,0,0,1-2.3-5.3,24.6,24.6,0,0,1-.7-6.5,17.4,17.4,0,0,1,1.2-6.3,8.1,8.1,0,0,1,1.5-2.2l2.7-2.7,3.5-2.9,3.7-2.9,3.6-2.6,3-2.1a7.7,7.7,0,0,1-.1-1.2q0-.7-.1-1.5t-.1-1.9l1-.9,1.7-1.4,2-1.6,2-1.4,1.5-1,.6-.2q.2,1.4.3,3.6t.3,4.7l.3,5.3q.1,2.7.3,5.3l.2,4.8q.1,2.3.2,3.9a26.4,26.4,0,0,0,1.1,6.4,9.6,9.6,0,0,0,1.9,3.5,5.4,5.4,0,0,0,2.5,1.6,12.6,12.6,0,0,0,2.9.4Zm-33.6-8.7a3.5,3.5,0,0,0,1,2.3,6.2,6.2,0,0,0,2.3,1.4,15.1,15.1,0,0,0,3.2.8l3.5.3h3.5l3-.3q-.3-2.3-.5-4.2t-.3-3.7l-.2-3.3q-.1-1.6-.3-3.2l-5.5,2.6q-2.7,1.4-4.9,2.9a26.6,26.6,0,0,0-3.5,2.7Q378.6,276.9,378.7,277.6Z" transform="translate(-176.4 -45.2)"/><path d="M403.9,293.5a7,7,0,0,1,.6-2.8,7.4,7.4,0,0,1,1.5-2.3,7,7,0,0,1,2.2-1.5,6.8,6.8,0,0,1,2.8-.6,7,7,0,0,1,2.8.6,7.2,7.2,0,0,1,3.8,3.8,7,7,0,0,1,.6,2.8,6.8,6.8,0,0,1-.6,2.8,7,7,0,0,1-1.5,2.2,7.4,7.4,0,0,1-2.3,1.5,7,7,0,0,1-2.8.6,6.8,6.8,0,0,1-2.8-.6,7.1,7.1,0,0,1-3.7-3.7A6.8,6.8,0,0,1,403.9,293.5Zm28-45.2a10.4,10.4,0,0,1,6.2,2,17.4,17.4,0,0,1,4.8,5.5,30.2,30.2,0,0,1,3.1,8.1,41.7,41.7,0,0,1,1.1,9.6,33.3,33.3,0,0,1-1.2,9.4,24,24,0,0,1-3.3,7.1,21.3,21.3,0,0,1-4.9,5,25.6,25.6,0,0,1-6,3.2,31.8,31.8,0,0,1-6.5,1.7,43.9,43.9,0,0,1-6.6.5H411V286.3h7.6a70.4,70.4,0,0,0,8.1-.4,33.3,33.3,0,0,0,6.2-1.3,17.3,17.3,0,0,0,4.4-2,10.6,10.6,0,0,0,2.8-2.7l-.6.4-1.5.6-2.7.6-4,.3a20,20,0,0,1-8-1.3,10.5,10.5,0,0,1-4.6-3.6,11.7,11.7,0,0,1-1.9-5.3,30.6,30.6,0,0,1,0-6.4,21.3,21.3,0,0,1,1.5-6.1,20.6,20.6,0,0,1,3.2-5.4,16.2,16.2,0,0,1,4.6-3.9A11.9,11.9,0,0,1,431.9,248.3Zm-.6,22.2,4.4-.2,2.7-.5,1.4-.5.4-.2-.9-2.4a14.5,14.5,0,0,0-1.8-3.2,12.7,12.7,0,0,0-3-2.9,7.9,7.9,0,0,0-4.4-1.4,12.7,12.7,0,0,0-3.6.4,8.8,8.8,0,0,0-2.9,1.3,6.3,6.3,0,0,0-1.9,2.1,5.7,5.7,0,0,0-.7,2.6,2.9,2.9,0,0,0,1,2.2,8,8,0,0,0,2.5,1.5,15.1,15.1,0,0,0,3.3.9Zm-7.2-34.2,7.8-7.8,7.8,7.8L432,244Z" transform="translate(-176.4 -45.2)"/><path d="M480.4,272.2q.2,0,.8,1l1.6,2.6,2.2,3.4a32.2,32.2,0,0,0,2.7,3.4,15.4,15.4,0,0,0,3.1,2.6,6.1,6.1,0,0,0,3.3,1h1v14.2h-.8l-2.9-.2-2.2-.6-1.6-.7-1.2-.8a29.9,29.9,0,0,1-1.5,8,37.1,37.1,0,0,1-13.1,17.9,25.6,25.6,0,0,1-5.3,3,12.9,12.9,0,0,1-4.8,1.1,7.7,7.7,0,0,1-3-1,28.4,28.4,0,0,1-3.8-2.4,42.4,42.4,0,0,1-3.5-3,12.8,12.8,0,0,1-2.3-2.6q-.5-.8-.1-1.3a1.3,1.3,0,0,1,1-.4,31.8,31.8,0,0,0,8.6-1.1,34.9,34.9,0,0,0,7.3-2.9,32.9,32.9,0,0,0,5.9-4A32.5,32.5,0,0,0,476,305a18.3,18.3,0,0,0,2.5-4.1,6.1,6.1,0,0,0,.6-3.1,13.4,13.4,0,0,0-.9-2.7q-.8-1.8-1.9-3.9l-2.2-4.1-2-3.4,2.1-3.5,2.4-3.7a36.9,36.9,0,0,1,2.2-3Q479.9,272.2,480.4,272.2Z" transform="translate(-176.4 -45.2)"/><path d="M487.3,293.5a7,7,0,0,1,.6-2.8,7.4,7.4,0,0,1,1.5-2.3,7,7,0,0,1,2.2-1.5,6.8,6.8,0,0,1,2.8-.6,7,7,0,0,1,2.8.6,7.2,7.2,0,0,1,3.8,3.8,7,7,0,0,1,.6,2.8,6.8,6.8,0,0,1-.6,2.8,7,7,0,0,1-1.5,2.2,7.4,7.4,0,0,1-2.3,1.5,7,7,0,0,1-2.8.6,6.8,6.8,0,0,1-2.8-.6,7.1,7.1,0,0,1-3.7-3.7A6.8,6.8,0,0,1,487.3,293.5Zm25.6-34.7a16.9,16.9,0,0,1,5.1.9q2.8.9,5.8,2.2l6.4,2.9q3.4,1.6,6.9,2.9a62.4,62.4,0,0,0,7.2,2.2,31.6,31.6,0,0,0,7.4.9h.1q1,0,1.1.5a1.3,1.3,0,0,1-.1,1l-4.4,9.7a14.6,14.6,0,0,0-5.2,1.6l-6.5,3.5-7.8,4.4a87.4,87.4,0,0,1-9.1,4.4,69.3,69.3,0,0,1-10.5,3.3,51.6,51.6,0,0,1-11.9,1.3h-3.2V286.3h4.4a56.3,56.3,0,0,0,8.2-.3,71,71,0,0,0,8.9-1.6,63.5,63.5,0,0,0,8.8-2.8,46.7,46.7,0,0,0,8-4.2l-7-2.6-5.5-2.2-4.5-1.5a15.7,15.7,0,0,0-4.1-.6h-.2a9.2,9.2,0,0,0-3.2.6,13.8,13.8,0,0,0-2.7,1.3l-2,1.5-1.1,1a6,6,0,0,1-1.6,1.3,2.8,2.8,0,0,1-1.3.4,1.2,1.2,0,0,1-1.1-.8,4.2,4.2,0,0,1-.1-2.3,24.1,24.1,0,0,1,1.6-5.1,18.8,18.8,0,0,1,2.9-4.8,15,15,0,0,1,4.3-3.5A11.9,11.9,0,0,1,512.9,258.8Z" transform="translate(-176.4 -45.2)"/></svg>
