<svg xmlns="http://www.w3.org/2000/svg" viewBox="0 0 467.8 467.7"><path d="M289.8,386.1a160.5,160.5,0,0,1-40.3-96.5h-70a230.2,230.2,0,0,0,60.8,145.9Z" transform="translate(-176.4 -45.2)" style="fill:#e1e0e2;stroke:#e1e0e2;stroke-linecap:round;stroke-linejoin:round;stroke-width:6px"/><path d="M249.4,270.5a160.5,160.5,0,0,1,39.8-97.7l-49.5-49.5a230.2,230.2,0,0,0-60.2,147.2Z" transform="translate(-176.4 -45.2)" style="fill:#e1e0e2;stroke:#e1e0e2;stroke-linecap:round;stroke-linejoin:round;stroke-width:6px"/><path d="M302.6,159.2a160.5,160.5,0,0,1,98.2-41v-70a230.2,230.2,0,0,0-147.7,61.5Z" transform="translate(-176.4 -45.2)" style="fill:#e1e0e2;stroke:#e1e0e2;stroke-linecap:round;stroke-linejoin:round;stroke-width:6px"/><path d="M419.9,48.2v70a160.5,160.5,0,0,1,97.5,40.4l49.5-49.5A230.2,230.2,0,0,0,419.9,48.2Z" transform="translate(-176.4 -45.2)" style="fill:#8677a2;stroke:#8677a2;stroke-linecap:round;stroke-linejoin:round;stroke-width:6px"/><path d="M571.2,289.7a160.5,160.5,0,0,1-41,97.2l49.5,49.5a230.2,230.2,0,0,0,61.5-146.7Z" transform="translate(-176.4 -45.2)" style="fill:#8677a2;stroke:#8677a2;stroke-linecap:round;stroke-linejoin:round;stroke-width:6px"/><path d="M530.9,172.1a160.5,160.5,0,0,1,40.4,98.5h69.9a230.2,230.2,0,0,0-60.9-147.9Z" transform="translate(-176.4 -45.2)" style="fill:#8677a2;stroke:#8677a2;stroke-linecap:round;stroke-linejoin:round;stroke-width:6px"/><path d="M400.8,440a160.5,160.5,0,0,1-97.5-40.4l-49.5,49.5A230.2,230.2,0,0,0,400.8,510Z" transform="translate(-176.4 -45.2)" style="fill:#e1e0e2;stroke:#e1e0e2;stroke-linecap:round;stroke-linejoin:round;stroke-width:6px"/><path d="M516.6,400.3A160.5,160.5,0,0,1,419.9,440v70a230.2,230.2,0,0,0,146.2-60.2Z" transform="translate(-176.4 -45.2)" style="fill:#8677a2;stroke:#8677a2;stroke-linecap:round;stroke-linejoin:round;stroke-width:6px"/><path d="M287.4,293.5a7,7,0,0,1,.6-2.8,7.4,7.4,0,0,1,1.5-2.3,7,7,0,0,1,2.2-1.5,6.8,6.8,0,0,1,2.8-.6,7,7,0,0,1,2.8.6,7.2,7.2,0,0,1,3.8,3.8,7,7,0,0,1,.6,2.8,6.8,6.8,0,0,1-.6,2.8,7,7,0,0,1-1.5,2.2,7.4,7.4,0,0,1-2.3,1.5,7,7,0,0,1-2.8.6,6.8,6.8,0,0,1-2.8-.6,7.1,7.1,0,0,1-3.7-3.7A6.8,6.8,0,0,1,287.4,293.5Zm61.5-7.1v14.2h-7.4l-5.8-.2-5-.4a18.5,18.5,0,0,1-3.9-.8,36.2,36.2,0,0,1-4.6,1,33.1,33.1,0,0,1-5.2.4H294.5V286.3h6.3l1.4-1.9,1.7-2.3q.3-6.3.2-11.9t-.6-11.1q-.4-5.5-1.2-11.1t-1.6-11.9l4.3-3.6,1.7-1.4,1.7-1.4,1.5-1.2,1.2-.9q.9-.7,1,0,.6,5,1,10.7t.4,11.6q0,5.9-.3,11.7t-1.1,10.9q2.5-2.6,5.3-5a55.6,55.6,0,0,1,5.6-4.3,30.3,30.3,0,0,1,5.6-3,14.4,14.4,0,0,1,5.4-1.1,15.4,15.4,0,0,1,6.8,1.4,9.8,9.8,0,0,1,3.9,3.4,10.9,10.9,0,0,1,1.6,4.5,23,23,0,0,1,.1,4.8,25.1,25.1,0,0,1-.7,4.2l-.8,2.8-.9,2.5a32.5,32.5,0,0,1-1.4,2.9l1.9.3,2.8.3Zm-31.5,0a57.8,57.8,0,0,0,6.2-.2,48.5,48.5,0,0,0,6.6-1,28.9,28.9,0,0,0,6-1.9,11.4,11.4,0,0,0,4.3-3.2,6.5,6.5,0,0,0,0-2.6,5.8,5.8,0,0,0-1.1-2.6,6.7,6.7,0,0,0-2.6-1.9,10.3,10.3,0,0,0-4.3-.8,22.9,22.9,0,0,0-8.1,1.4,32,32,0,0,0-6.9,3.5,35.4,35.4,0,0,0-5.5,4.6,58.4,58.4,0,0,0-4,4.6Z" transform="translate(-176.4 -45.2)"/><path d="M340.6,293.5a7,7,0,0,1,.6-2.8,7.4,7.4,0,0,1,1.5-2.3,7,7,0,0,1,2.2-1.5,6.8,6.8,0,0,1,2.8-.6,7,7,0,0,1,2.8.6,7.2,7.2,0,0,1,3.8,3.8,7,7,0,0,1,.6,2.8,6.8,6.8,0,0,1-.6,2.8,7,7,0,0,1-1.5,2.2,7.4,7.4,0,0,1-2.3,1.5,7,7,0,0,1-2.8.6,6.8,6.8,0,0,1-2.8-.6,7.1,7.1,0,0,1-3.7-3.7A6.8,6.8,0,0,1,340.6,293.5Zm62.7-32.9q.3,0,1.2,1.6a22,22,0,0,1,1.8,4.4,43.7,43.7,0,0,1,1.4,6.7,39,39,0,0,1,.2,8.6,38,38,0,0,1-1.4,7.2,23.6,23.6,0,0,1-2.7,6,13.5,13.5,0,0,1-3.9,4.1,9.4,9.4,0,0,1-5.3,1.5,18.6,18.6,0,0,1-4.2-.4,11.2,11.2,0,0,1-3.5-1.4,10,10,0,0,1-2.7-2.5,12.5,12.5,0,0,1-1.9-3.8,22.4,22.4,0,0,1-2.7,4.4,11.7,11.7,0,0,1-2.7,2.5,7.7,7.7,0,0,1-2.6,1.1l-2.5.3a9.9,9.9,0,0,1-6.6-2.3,9.2,9.2,0,0,1-1.9-2.2,15,15,0,0,1-1.2-2.2,12.4,12.4,0,0,1-.6-1.9,5.8,5.8,0,0,1-.2-1.1l-.6,1.1-1.3,1.9-2,2.2a17.1,17.1,0,0,1-2.6,2.1,15.5,15.5,0,0,1-3.2,1.6,10.7,10.7,0,0,1-3.8.6h-.4V286.3h2a12.2,12.2,0,0,0,4.5-.8,9.1,9.1,0,0,0,3.2-2.2,14.1,14.1,0,0,0,2.3-3.5q1-2,2-4.6l.5-1.3a8.1,8.1,0,0,1,.7-1.4,4.5,4.5,0,0,1,1-1.1,1.7,1.7,0,0,1,1.3-.3,1.8,1.8,0,0,1,1.3.6,2.9,2.9,0,0,1,.6,1.2,5.2,5.2,0,0,1,.1,1.5v1.4q-.2,1.8-.4,3.7a10.4,10.4,0,0,0,.3,3.5,4.7,4.7,0,0,0,1.6,2.5,5.1,5.1,0,0,0,3.5.9,12.6,12.6,0,0,0,4.2-.6,6.6,6.6,0,0,0,2.8-1.9,12.3,12.3,0,0,0,2-3.3q.8-2,1.8-4.9l.5-1.4a8.6,8.6,0,0,1,.8-1.6,4.6,4.6,0,0,1,1.1-1.3,1.6,1.6,0,0,1,1.5-.3,2,2,0,0,1,1.2.8,2.5,2.5,0,0,1,.4,1.2,7.4,7.4,0,0,1-.1,1.5q-.1.8-.2,1.6a19.8,19.8,0,0,0,0,3.5,9.7,9.7,0,0,0,.9,3.3,6.3,6.3,0,0,0,2.1,2.5,6.5,6.5,0,0,0,3.7,1l2-.2a14.8,14.8,0,0,0,2.9-.6,8.9,8.9,0,0,0,2.6-1.4,3.2,3.2,0,0,0,1.3-2.4,5.3,5.3,0,0,0-.2-1.9,9.8,9.8,0,0,0-.7-2l-1.1-1.9-1.1-1.8-.8-1.1-.9-1.3-1-1.2-.9-1,1.7-3,1.1-1.7,1.4-2,1.3-1.6C402.8,260.7,403.1,260.5,403.3,260.5Z" transform="translate(-176.4 -45.2)"/><path d="M433.8,261.9a12,12,0,0,1,5.5,1.2,12.6,12.6,0,0,1,4,3.2,17.9,17.9,0,0,1,2.7,4.6,35.3,35.3,0,0,1,1.7,5.3,48.5,48.5,0,0,1,1,5.4l.6,4.8H454v14.2h-5.3a35.7,35.7,0,0,1-2.6,9,37.8,37.8,0,0,1-4.1,7.1,32,32,0,0,1-4.9,5.3,34,34,0,0,1-5.1,3.6,25.2,25.2,0,0,1-4.5,2.1,11.3,11.3,0,0,1-3.3.7H424a8.3,8.3,0,0,1-2.6-.8,18.5,18.5,0,0,1-2.7-1.6l-2.6-2-2.3-2.1-1.7-1.8-.9-1.1a1.4,1.4,0,0,1-.3-.9c0-.3.3-.5.8-.5h1.3a26.6,26.6,0,0,0,5.6-.6,36.9,36.9,0,0,0,11.2-4.4,39,39,0,0,0,4.8-3.4,27.3,27.3,0,0,0,3.9-4,19.8,19.8,0,0,0,2.7-4.4h-.6a55.9,55.9,0,0,1-11-.9,17.6,17.6,0,0,1-7-2.8,10.4,10.4,0,0,1-3.7-4.9,21.5,21.5,0,0,1-1.1-7.3,22.5,22.5,0,0,1,.5-4.2,31.2,31.2,0,0,1,1.4-4.9,35.2,35.2,0,0,1,2.3-4.9,21.8,21.8,0,0,1,3.1-4.3,15.7,15.7,0,0,1,4-3.1,9.8,9.8,0,0,1,4.7-1.2Zm5.4,24.4h2.2a22.1,22.1,0,0,0-.7-3.3,17.2,17.2,0,0,0-1.7-4,13.2,13.2,0,0,0-2.9-3.5,7.9,7.9,0,0,0-4.4-1.8h-.8a7,7,0,0,0-3.1.7,8.9,8.9,0,0,0-2.5,1.8,8.6,8.6,0,0,0-1.7,2.5,6.4,6.4,0,0,0-.6,2.7,3.4,3.4,0,0,0,1.3,2.8,8.2,8.2,0,0,0,3.5,1.5,28.2,28.2,0,0,0,5.2.6Z" transform="translate(-176.4 -45.2)"/><path d="M445.8,293.5a7,7,0,0,1,.6-2.8,7.4,7.4,0,0,1,1.5-2.3,7,7,0,0,1,2.2-1.5,6.8,6.8,0,0,1,2.8-.6,7,7,0,0,1,2.8.6,7.2,7.2,0,0,1,3.8,3.8,7,7,0,0,1,.6,2.8,6.8,6.8,0,0,1-.6,2.8,7,7,0,0,1-1.5,2.2,7.4,7.4,0,0,1-2.3,1.5,7,7,0,0,1-2.8.6,6.8,6.8,0,0,1-2.8-.6,7.1,7.1,0,0,1-3.7-3.7A6.8,6.8,0,0,1,445.8,293.5Zm25.1-24.7a2.4,2.4,0,0,1,1.6.6,3.7,3.7,0,0,1,1,1.3,6.3,6.3,0,0,1,.4,1.6,9.9,9.9,0,0,1,.1,1.3,18.2,18.2,0,0,0,.8,5.9,9.5,9.5,0,0,0,2.5,4,10.1,10.1,0,0,0,4.1,2.3,19.8,19.8,0,0,0,5.6.7h.7v14.2h-.8a24.6,24.6,0,0,1-5.5-.6,20.7,20.7,0,0,1-4.6-1.6,15.1,15.1,0,0,1-3.6-2.4,10.8,10.8,0,0,1-2.4-3.1,15,15,0,0,1-3.6,4.2,16.2,16.2,0,0,1-8.2,3.3l-3.6.2h-2.6V286.3H454a17.9,17.9,0,0,0,4.9-.7,12.6,12.6,0,0,0,4.4-2.2,11.2,11.2,0,0,0,3.1-3.9,13.3,13.3,0,0,0,1.2-5.9,8.7,8.7,0,0,1,.1-1.4,6.4,6.4,0,0,1,.5-1.6,3.7,3.7,0,0,1,1-1.3A2.5,2.5,0,0,1,470.9,268.7ZM458,255.8l7.2-7.2,7.2,7.2-7.2,7.2Zm12.4,0,7.2-7.2,7.2,7.2-7.2,7.2Z" transform="translate(-176.4 -45.2)"/><path d="M479.6,293.5a7,7,0,0,1,.6-2.8,7.4,7.4,0,0,1,1.5-2.3,7,7,0,0,1,2.2-1.5,6.8,6.8,0,0,1,2.8-.6,7,7,0,0,1,2.8.6,7.2,7.2,0,0,1,3.8,3.8,7,7,0,0,1,.6,2.8,6.8,6.8,0,0,1-.6,2.8,7,7,0,0,1-1.5,2.2,7.4,7.4,0,0,1-2.3,1.5,7,7,0,0,1-2.8.6,6.8,6.8,0,0,1-2.8-.6,7.1,7.1,0,0,1-3.7-3.7A6.8,6.8,0,0,1,479.6,293.5ZM515,262.4a10.7,10.7,0,0,1,5.2,1.3,14.4,14.4,0,0,1,4.2,3.6,23.3,23.3,0,0,1,3.2,5.5,45,45,0,0,1,2.3,7,24.2,24.2,0,0,1,.6,8,18.2,18.2,0,0,1-1.9,6.6,12.2,12.2,0,0,1-3.9,4.5,9.2,9.2,0,0,1-5.3,1.6,20.4,20.4,0,0,1-3.8-.3l-3.6-1-3.4-1.4-3-1.6a46.3,46.3,0,0,1-6.2-4.2,15.8,15.8,0,0,1-2.9,4.9,11.1,11.1,0,0,1-3.3,2.5,9.8,9.8,0,0,1-3.3.9h-3.3V286.3H489a7.3,7.3,0,0,0,4.9-1.8,18.9,18.9,0,0,0,3.7-4.4q1.6-2.7,3.2-5.8a41.8,41.8,0,0,1,3.5-5.8,18.3,18.3,0,0,1,4.5-4.4A10.9,10.9,0,0,1,515,262.4Zm6.8,25.8a2.6,2.6,0,0,0,2-.7,3.2,3.2,0,0,0,.8-1.8,7.1,7.1,0,0,0-.1-2.4,13.8,13.8,0,0,0-.7-2.4,21.5,21.5,0,0,0-1.4-2.7,17,17,0,0,0-2-2.7,11.7,11.7,0,0,0-2.5-2,5.1,5.1,0,0,0-2.7-.8,5.5,5.5,0,0,0-3.1.9,12.2,12.2,0,0,0-2.6,2.3,29.1,29.1,0,0,0-2.2,3l-2,3,6.2,3.2,2.7,1.2,2.7,1,2.6.7Z" transform="translate(-176.4 -45.2)"/></svg>
