<?xml version="1.0" encoding="UTF-8" standalone="no"?>
<!-- Generator: Adobe Illustrator 16.0.0, SVG Export Plug-In . SVG Version: 6.00 Build 0)  -->

<svg
   xmlns:dc="http://purl.org/dc/elements/1.1/"
   xmlns:cc="http://creativecommons.org/ns#"
   xmlns:rdf="http://www.w3.org/1999/02/22-rdf-syntax-ns#"
   xmlns:svg="http://www.w3.org/2000/svg"
   xmlns="http://www.w3.org/2000/svg"
   xmlns:sodipodi="http://sodipodi.sourceforge.net/DTD/sodipodi-0.dtd"
   xmlns:inkscape="http://www.inkscape.org/namespaces/inkscape"
   version="1.1"
   id="Layer_1"
   x="0px"
   y="0px"
   width="443.186"
   height="61.554001"
   viewBox="0 0 443.186 61.554001"
   enable-background="new 0 0 792 612"
   xml:space="preserve"
   sodipodi:docname="logo5.svg"
   inkscape:version="0.92.4 (f8dce91, 2019-08-02)"><metadata
   id="metadata3835"><rdf:RDF><cc:Work
       rdf:about=""><dc:format>image/svg+xml</dc:format><dc:type
         rdf:resource="http://purl.org/dc/dcmitype/StillImage" /><dc:title></dc:title></cc:Work></rdf:RDF></metadata><defs
   id="defs3833" /><sodipodi:namedview
   pagecolor="#ffffff"
   bordercolor="#666666"
   borderopacity="1"
   objecttolerance="10"
   gridtolerance="10"
   guidetolerance="10"
   inkscape:pageopacity="0"
   inkscape:pageshadow="2"
   inkscape:window-width="1370"
   inkscape:window-height="845"
   id="namedview3831"
   showgrid="true"
   showguides="true"
   inkscape:snap-text-baseline="false"
   inkscape:zoom="1.5713484"
   inkscape:cx="224.84673"
   inkscape:cy="-9.7367847"
   inkscape:window-x="70"
   inkscape:window-y="27"
   inkscape:window-maximized="1"
   inkscape:current-layer="Layer_1"><inkscape:grid
     type="xygrid"
     id="grid3837"
     originx="-174.407"
     originy="-287.495" /></sodipodi:namedview>

<polygon
   points="248.271,262.951 248.271,275.262 248.271,287.573 248.271,299.883 248.271,312.194 248.271,324.505 260.582,324.505 260.582,312.194 260.582,299.883 260.582,287.573 260.582,275.262 260.582,262.951 "
   id="polygon3812"
   style="clip-rule:evenodd;fill:#babcbe;fill-rule:evenodd;fill-opacity:1"
   transform="translate(-174.407,-262.951)" />
<path
   d="m 204.93,47.394 v 0 L 181.411,23.875 c -3.605,-3.605 -8.332,-5.408 -13.058,-5.408 h -19.131 v 12.311 h 19.131 c 1.575,0 3.151,0.601 4.353,1.802 l 23.519,23.519 c 3.605,3.605 8.332,5.408 13.057,5.408 v 0.047 h 6.156 c 4.73,0 9.044,-1.779 12.311,-4.704 3.268,2.925 7.581,4.704 12.311,4.704 h 6.155 6.156 c 4.729,0 9.043,-1.779 12.311,-4.704 3.267,2.925 7.58,4.704 12.311,4.704 4.729,0 9.044,-1.779 12.311,-4.704 3.267,2.925 7.581,4.704 12.311,4.704 10.198,0 18.466,-8.268 18.466,-18.466 V 36.933 24.622 12.311 H 307.77 v 12.311 12.311 6.155 c 0,3.4 -2.756,6.156 -6.155,6.156 -3.399,0 -6.155,-2.756 -6.155,-6.156 V 36.933 24.622 h -12.311 v 12.311 6.155 c 0,3.4 -2.756,6.156 -6.155,6.156 -3.399,0 -6.155,-2.756 -6.155,-6.156 V 36.933 24.622 h -12.312 v 12.311 6.155 c 0,3.4 -2.756,6.156 -6.154,6.156 h -6.156 -6.155 c -3.399,0 -6.155,-2.756 -6.155,-6.156 V 36.933 24.622 18.467 h -12.314 v 6.155 12.311 6.155 c 0,3.4 -2.756,6.156 -6.155,6.156 h -6.156 v -0.047 c -1.575,-0.001 -3.15,-0.601 -4.352,-1.803"
   id="path3814"
   inkscape:connector-curvature="0"
   style="clip-rule:evenodd;fill:#babcbe;fill-rule:evenodd;fill-opacity:1" />
<path
   d="m 406.254,12.311 h 12.311 V 0 h -12.311 -6.156 C 389.9,0 381.632,8.268 381.632,18.466 v 6.155 12.311 h 12.311 12.312 v 6.155 c 0,3.4 -2.756,6.156 -6.156,6.156 h -6.155 -12.311 -6.155 c -3.399,0 -6.155,-2.756 -6.155,-6.156 V 36.932 24.621 12.31 h -12.311 v 12.311 12.311 6.155 c 0,10.199 8.268,18.466 18.466,18.466 h 6.155 12.311 6.155 c 10.199,0 18.467,-8.268 18.467,-18.466 v -6.155 c 0,-6.799 -5.512,-12.311 -12.311,-12.311 h -12.312 v -6.155 c 0,-3.399 2.757,-6.155 6.155,-6.155 z"
   id="path3816"
   inkscape:connector-curvature="0"
   style="clip-rule:evenodd;fill:#babcbe;fill-rule:evenodd;fill-opacity:1" />
<path
   d="m 189.369,49.243 v 12.311 h -12.311 -4.708 -12.311 -6.155 -4.662 c -4.83,0 -9.226,-1.854 -12.517,-4.89 -2.484,2.987 -6.227,4.89 -10.416,4.89 h -11.08 -12.311 -4.414 V 49.243 h 4.414 12.311 11.08 c 0.68,0 1.231,-0.552 1.231,-1.231 0,-0.34 -0.138,-0.647 -0.36,-0.87 v 0 l -28.675,-28.675 8.705,-8.705 28.675,28.675 9.003,9.004 c 1.114,1.113 2.653,1.803 4.353,1.803 h 4.662 6.155 12.311 4.708 12.312 z"
   id="path3818"
   inkscape:connector-curvature="0"
   style="clip-rule:evenodd;fill:#babcbe;fill-rule:evenodd;fill-opacity:1" />
<polygon
   points="605.282,262.951 605.282,275.262 605.282,287.573 605.282,299.883 605.282,312.194 605.282,324.505 617.593,324.505 617.593,312.194 617.593,299.883 617.593,287.573 617.593,275.262 617.593,262.951 "
   id="polygon3820"
   style="clip-rule:evenodd;fill:#babcbe;fill-rule:evenodd;fill-opacity:1"
   transform="translate(-174.407,-262.951)" />
<polygon
   points="519.107,324.505 519.107,312.194 519.107,299.883 519.107,287.573 519.107,275.262 519.107,262.951 506.797,262.951 506.797,275.262 506.797,287.573 506.797,299.883 506.797,312.194 506.797,324.505 "
   id="polygon3822"
   style="clip-rule:evenodd;fill:#babcbe;fill-rule:evenodd;fill-opacity:1"
   transform="translate(-174.407,-262.951)" />
<path
   d="M 49.243,49.243 H 61.554 V 61.554 H 49.243 36.932 30.776 C 13.778,61.554 0,47.775 0,30.778 0,13.78 13.779,10e-4 30.776,10e-4 h 6.156 6.155 c 10.198,0 18.466,8.268 18.466,18.466 v 6.155 c 0,6.799 -5.512,12.311 -12.311,12.311 H 36.931 24.62 V 24.622 h 12.311 12.311 v -6.155 c 0,-3.399 -2.756,-6.155 -6.155,-6.155 h -6.155 -6.156 c -10.198,0 -18.466,8.267 -18.466,18.466 0,10.198 8.268,18.466 18.466,18.466 h 6.156 12.311 z"
   id="path3824"
   inkscape:connector-curvature="0"
   style="clip-rule:evenodd;fill:#ffffff;fill-rule:evenodd" />
<path
   d="m 155.378,0 c 3.399,0 6.155,2.756 6.155,6.156 0,3.399 -2.756,6.155 -6.155,6.155 -3.399,0 -6.155,-2.756 -6.155,-6.155 C 149.222,2.756 151.978,0 155.378,0"
   id="path3826"
   inkscape:connector-curvature="0"
   style="clip-rule:evenodd;fill:#babcbe;fill-rule:evenodd;fill-opacity:1" />
<path
   d="m 228.097,0 c 3.399,0 6.155,2.756 6.155,6.156 0,3.399 -2.756,6.155 -6.155,6.155 -3.399,0 -6.155,-2.756 -6.155,-6.155 0,3.399 -2.756,6.155 -6.155,6.155 -3.4,0 -6.156,-2.756 -6.156,-6.155 0,-3.4 2.756,-6.156 6.156,-6.156 3.399,0 6.155,2.756 6.155,6.156 0,-3.4 2.755,-6.156 6.155,-6.156"
   id="path3828"
   inkscape:connector-curvature="0"
   style="clip-rule:evenodd;fill:#babcbe;fill-rule:evenodd;fill-opacity:1" />
</svg>